<svg xmlns="http://www.w3.org/2000/svg" viewBox="0 0 113.82 107"><title>Untitled-4</title><g style="isolation:isolate"><ellipse cx="42.19" cy="39.03" rx="11.99" ry="12.09" fill="#974ee1" opacity="0.6" style="mix-blend-mode:multiply"/><ellipse cx="72.8" cy="39.03" rx="11.99" ry="12.09" fill="#974ee1" opacity="0.6" style="mix-blend-mode:multiply"/><path d="M58.16,73.22a12,12,0,1,1-9.8-9.87A12.06,12.06,0,0,1,58.16,73.22Z" transform="translate(-4 -7)" fill="#974ee1" opacity="0.6" style="mix-blend-mode:multiply"/><ellipse cx="72.83" cy="68.08" rx="11.99" ry="12.09" fill="#974ee1" opacity="0.6" style="mix-blend-mode:multiply"/><ellipse cx="97.09" cy="67.6" rx="4.96" ry="5" fill="#974ee1" opacity="0.6" style="mix-blend-mode:multiply"/><ellipse cx="97.06" cy="91.39" rx="4.96" ry="5" fill="#974ee1" opacity="0.6" style="mix-blend-mode:multiply"/><ellipse cx="72.79" cy="91.45" rx="4.96" ry="5" fill="#974ee1" opacity="0.6" style="mix-blend-mode:multiply"/><ellipse cx="42.1" cy="91.42" rx="4.96" ry="5" fill="#974ee1" opacity="0.6" style="mix-blend-mode:multiply"/><ellipse cx="17.79" cy="91.38" rx="4.96" ry="5" fill="#974ee1" opacity="0.6" style="mix-blend-mode:multiply"/><ellipse cx="17.87" cy="67.95" rx="4.96" ry="5" fill="#974ee1" opacity="0.6" style="mix-blend-mode:multiply"/><ellipse cx="17.95" cy="38.45" rx="4.96" ry="5" fill="#974ee1" opacity="0.6" style="mix-blend-mode:multiply"/><ellipse cx="17.95" cy="16.99" rx="4.96" ry="5" fill="#974ee1" opacity="0.6" style="mix-blend-mode:multiply"/><ellipse cx="42.14" cy="16.99" rx="4.96" ry="5" fill="#974ee1" opacity="0.6" style="mix-blend-mode:multiply"/><ellipse cx="72.36" cy="16.99" rx="4.96" ry="5" fill="#974ee1" opacity="0.6" style="mix-blend-mode:multiply"/><ellipse cx="97.11" cy="16.96" rx="4.96" ry="5" fill="#974ee1" opacity="0.6" style="mix-blend-mode:multiply"/><ellipse cx="97.22" cy="38.57" rx="4.96" ry="5" fill="#974ee1" opacity="0.6" style="mix-blend-mode:multiply"/><ellipse cx="111.49" cy="38.43" rx="2.33" ry="2.35" fill="#974ee1" opacity="0.6" style="mix-blend-mode:multiply"/><ellipse cx="72.54" cy="2.35" rx="2.33" ry="2.35" fill="#974ee1" opacity="0.6" style="mix-blend-mode:multiply"/><ellipse cx="42.06" cy="2.37" rx="2.33" ry="2.35" fill="#974ee1" opacity="0.6" style="mix-blend-mode:multiply"/><ellipse cx="111.44" cy="67.62" rx="2.33" ry="2.35" fill="#974ee1" opacity="0.6" style="mix-blend-mode:multiply"/><path d="M76.52,114a2.35,2.35,0,1,1,2.33-2.35A2.34,2.34,0,0,1,76.52,114" transform="translate(-4 -7)" fill="#974ee1" opacity="0.6" style="mix-blend-mode:multiply"/><path d="M46.09,114a2.35,2.35,0,1,1,2.33-2.35A2.34,2.34,0,0,1,46.09,114" transform="translate(-4 -7)" fill="#974ee1" opacity="0.6" style="mix-blend-mode:multiply"/><ellipse cx="2.33" cy="67.66" rx="2.33" ry="2.35" fill="#974ee1" opacity="0.6" style="mix-blend-mode:multiply"/><ellipse cx="2.37" cy="38.42" rx="2.33" ry="2.35" fill="#974ee1" opacity="0.6" style="mix-blend-mode:multiply"/></g></svg>